<svg width="38" height="38" viewBox="0 0 38 38" fill="none" xmlns="http://www.w3.org/2000/svg">
<path d="M3.11533 24.9273L2.56451 25.4781L2.01367 24.9273L2.56451 24.3764L3.11533 24.9273ZM26.4849 24.1483C26.915 24.1483 27.2639 24.497 27.2639 24.9273C27.2639 25.3575 26.915 25.7062 26.4849 25.7062V24.1483ZM8.79639 31.71L2.56451 25.4781L3.66615 24.3764L9.89803 30.6083L8.79639 31.71ZM2.56451 24.3764L8.79639 18.1445L9.89803 19.2463L3.66615 25.4781L2.56451 24.3764ZM3.11533 24.1483L26.4849 24.1483V25.7062L3.11533 25.7062L3.11533 24.1483Z" fill="#2C2C2C"/>
<path d="M34.2755 12.4643L34.8264 13.0152L35.3771 12.4643L34.8264 11.9134L34.2755 12.4643ZM10.9059 11.6853C10.4757 11.6853 10.127 12.0341 10.127 12.4643C10.127 12.8944 10.4757 13.2433 10.9059 13.2433V11.6853ZM28.5945 19.2471L34.8264 13.0152L33.7246 11.9134L27.4927 18.1453L28.5945 19.2471ZM34.8264 11.9134L28.5945 5.68151L27.4927 6.7833L33.7246 13.0152L34.8264 11.9134ZM34.2755 11.6853L10.9059 11.6853V13.2433L34.2755 13.2433V11.6853Z" fill="#2C2C2C"/>
</svg>
