<svg width="93" height="26" viewBox="0 0 93 26" fill="none" xmlns="http://www.w3.org/2000/svg">
<path fill-rule="evenodd" clip-rule="evenodd" d="M14.1324 19.2963H10.1222C3.86621 19.2963 8.41115 6.15897 13.6779 6.15897H20.0141C21.03 6.15897 22.8212 6.34403 23.7035 3.85927L25.0669 0H16.3781C11.6728 0 8.01009 1.63887 5.36336 4.38794C0.791701 9.09306 -0.758917 16.4415 0.337213 19.9572C1.37987 23.2085 4.21377 25.3496 8.65173 25.4025L12.1006 25.4289H16.3514L17.394 22.3362C18.1693 20.1422 16.4316 19.2963 14.1324 19.2963ZM62.9503 13.8511L64.2601 9.64819H50.2779C47.952 9.64819 46.9093 10.2826 46.5083 11.6042L45.1983 15.8071H59.1806C61.5065 15.8071 62.5492 15.1727 62.9503 13.8511ZM43.113 21.2524L41.803 25.4553H55.7853C58.0845 25.4553 59.1539 24.8209 59.5549 23.4993L60.8649 19.2963H46.8826C44.5834 19.2963 43.5407 19.9307 43.113 21.2524ZM66.2118 4.22934L67.5221 0.026433H53.5396C51.2137 0.026433 50.171 0.660832 49.77 1.9825L48.46 6.18541H62.4423C64.7418 6.18541 65.784 5.55101 66.2118 4.22934ZM45.0914 5.07521C44.5032 1.16307 42.3911 0.026433 37.258 0.026433H27.9009L22.447 15.8071H25.8957C27.9543 15.8071 28.997 15.8336 30.0931 12.9259L32.3656 6.15897H35.8411C38.8087 6.15897 38.1403 9.83323 36.6431 13.4017C35.3064 16.5473 32.9805 19.3228 30.1733 19.3228H24.3719C22.0459 19.3228 20.9765 19.9572 20.5487 21.2789L19.1051 25.4817H23.3559L27.5266 25.4553C31.216 25.4289 34.237 25.1645 37.766 22.019C41.5089 18.6619 45.8399 10.0447 45.0914 5.07521ZM92.0915 0H83.9908L76.3713 8.0093C75.4887 8.93446 74.5799 9.85961 73.6973 10.9434H73.6172L77.4135 0H70.8105L61.9076 25.4553H68.5111L71.3448 17.446L74.2855 14.9877L76.6118 22.2305C77.3333 24.4773 78.0825 25.4553 79.6865 25.4553H84.7393L79.5525 11.2342L92.0915 0Z" fill="#00B33C"/>
</svg>
