<svg width="16" height="21" viewBox="0 0 16 21" fill="none" xmlns="http://www.w3.org/2000/svg">
<path d="M8.53333 4.2C7.36 4.2 6.4 3.255 6.4 2.1C6.4 0.945 7.36 0 8.53333 0C9.70667 0 10.6667 0.945 10.6667 2.1C10.6667 3.255 9.70667 4.2 8.53333 4.2ZM13.8667 0H16V0.42C15.8933 2.73 15.1467 4.515 13.5467 5.775C13.0133 6.195 12.3733 6.51 11.7333 6.72V21H9.6V14.7H7.46667V21H5.33333V8.505C5.01333 8.61 4.8 8.715 4.69333 8.82C3.73333 9.555 3.21067 10.5 3.2 12.075V12.6H1.06667V12.075C1.06667 9.975 1.824 8.3055 3.31733 7.0455C4.49067 6.1005 6.4 5.25 8.53333 5.25C10.6667 5.25 11.392 4.767 12.2453 4.137C13.312 3.297 13.8667 2.1 13.8667 0.525V0ZM0 14.7H3.2V21H0V14.7Z" fill="#2C2C2C"/>
</svg>
